<?xml version="1.0" standalone="no"?>
<!DOCTYPE svg PUBLIC "-//W3C//DTD SVG 20010904//EN"
 "http://www.w3.org/TR/2001/REC-SVG-20010904/DTD/svg10.dtd">
<svg version="1.0" xmlns="http://www.w3.org/2000/svg"
 width="263.000000pt" height="256.000000pt" viewBox="0 0 263.000000 256.000000"
 preserveAspectRatio="xMidYMid meet">

<g transform="translate(0.000000,256.000000) scale(0.100000,-0.100000)"
fill="#000000" stroke="none">
<path d="M0 1280 l0 -1280 1315 0 1315 0 0 1280 0 1280 -1315 0 -1315 0 0
-1280z m1475 1225 c116 -21 133 -26 147 -42 11 -14 7 -15 -32 -10 -25 3 -36 4
-25 1 11 -3 37 -19 57 -35 27 -21 44 -28 61 -24 14 4 32 -1 47 -13 15 -12 56
-24 105 -31 123 -17 213 -49 281 -97 49 -35 63 -50 68 -77 4 -19 16 -43 27
-53 24 -22 59 -86 59 -108 0 -8 -5 -16 -12 -18 -8 -3 -1 -22 21 -57 36 -56 53
-63 26 -11 -17 32 -15 47 4 36 26 -16 41 -76 45 -181 5 -129 22 -209 42 -201
8 3 14 -1 14 -10 0 -8 14 -44 30 -81 17 -37 33 -85 36 -107 3 -23 10 -59 15
-81 13 -53 0 -126 -46 -245 -20 -52 -43 -119 -51 -149 -9 -33 -25 -64 -44 -81
-17 -15 -30 -33 -30 -38 0 -6 -3 -17 -6 -26 -4 -10 -1 -16 9 -16 14 0 27 -28
27 -62 0 -9 -11 -30 -25 -46 -14 -17 -25 -40 -25 -53 -1 -23 -51 -89 -68 -89
-4 0 -21 -18 -38 -40 -16 -22 -37 -40 -46 -40 -9 0 -20 -5 -23 -10 -3 -5 -14
-10 -24 -10 -11 0 -29 -8 -41 -18 -19 -15 -20 -21 -10 -44 11 -24 10 -29 -22
-62 -20 -20 -45 -36 -57 -36 -37 0 -63 -19 -56 -40 7 -21 -36 -57 -54 -45 -12
7 -51 -12 -66 -31 -5 -7 -26 -13 -45 -14 -19 0 -53 0 -75 -1 -22 0 -78 0 -123
1 -51 1 -88 -2 -95 -9 -8 -8 -5 -11 10 -11 12 0 25 -4 28 -10 4 -6 -35 -10
-109 -10 -104 0 -115 -2 -109 -17 5 -13 2 -15 -11 -10 -9 4 -61 13 -115 21
-54 8 -131 27 -172 42 -41 14 -110 30 -154 34 -107 11 -174 25 -187 38 -7 7
-20 12 -29 12 -9 0 -22 7 -29 15 -7 8 -35 27 -63 43 -50 27 -154 144 -181 202
-6 14 -21 33 -33 43 -13 10 -23 26 -23 35 -1 9 -9 35 -19 57 -14 29 -18 52
-14 92 4 40 2 58 -10 71 -19 21 -23 49 -13 80 6 18 1 30 -23 58 -17 19 -31 38
-32 42 -1 15 -9 39 -25 82 -25 66 -30 251 -9 310 9 25 21 108 26 185 6 77 17
169 25 205 24 107 102 274 163 350 20 24 41 53 46 65 6 11 23 21 38 23 17 2
43 19 65 42 28 30 42 38 59 34 19 -5 37 8 101 72 54 55 99 90 150 117 79 41
116 48 105 20 -5 -13 -3 -15 13 -9 10 5 33 12 49 16 17 4 50 19 74 34 34 22
51 26 79 22 21 -3 71 0 112 8 98 18 138 19 235 1z"/>
<path d="M1413 2161 c1 -14 9 -26 17 -28 10 -3 11 -2 4 4 -7 4 -14 17 -17 28
-5 16 -5 15 -4 -4z"/>
<path d="M1133 2153 c29 -3 40 -10 47 -29 10 -26 20 -30 37 -13 20 20 67 6 81
-23 7 -16 21 -28 32 -28 10 0 22 -4 25 -10 3 -5 23 -9 43 -9 20 1 42 0 47 -1
41 -10 62 13 23 26 -13 3 -35 15 -49 25 -14 10 -46 23 -70 29 -117 30 -168 39
-209 38 -44 -1 -44 -1 -7 -5z"/>
<path d="M1010 2114 c-17 -9 -20 -14 -9 -14 9 0 22 7 29 15 15 18 13 18 -20
-1z"/>
<path d="M1503 2120 c2 -8 12 -16 23 -17 13 -2 15 -1 4 4 -8 3 -19 11 -23 17
-6 7 -7 6 -4 -4z"/>
<path d="M940 2075 c-19 -14 -46 -25 -60 -25 -25 -1 -24 -1 5 -14 37 -16 59
-7 80 34 9 17 14 30 13 30 -2 -1 -19 -12 -38 -25z"/>
<path d="M1593 2073 c9 -9 20 -13 24 -9 4 4 1 11 -7 16 -25 16 -35 11 -17 -7z"/>
<path d="M1623 2054 c-3 -8 -4 -16 -2 -17 39 -26 79 -60 79 -68 0 -5 -8 -9
-17 -9 -13 0 -14 -3 -5 -12 6 -6 25 -11 42 -10 21 0 35 -6 46 -23 8 -13 26
-26 38 -29 15 -4 26 -16 31 -33 3 -16 17 -39 30 -53 20 -21 24 -40 30 -127 5
-72 4 -103 -4 -103 -6 0 -13 12 -17 28 -3 15 -10 40 -14 55 -5 15 -7 41 -4 56
5 23 2 29 -14 33 -12 3 -28 22 -37 44 -8 20 -25 44 -38 53 -41 29 -91 51 -117
51 -14 0 -51 14 -83 31 -61 32 -139 59 -170 59 -11 0 -30 9 -44 20 -27 21 -71
18 -107 -6 -10 -7 -24 -10 -31 -8 -6 3 -18 -2 -25 -11 -18 -21 -57 -19 -93 7
-29 21 -31 21 -77 5 -26 -9 -54 -17 -62 -17 -8 0 -24 -13 -36 -30 -14 -19 -32
-30 -46 -30 -14 0 -26 -7 -28 -18 -3 -10 -23 -22 -51 -29 -36 -10 -47 -18 -47
-32 0 -29 -34 -48 -121 -67 -43 -9 -76 -21 -73 -26 9 -15 -39 -132 -68 -164
-20 -22 -34 -69 -17 -59 5 4 9 15 9 26 0 23 25 36 43 21 8 -7 18 -7 27 -2 19
12 30 12 30 1 0 -15 -60 -101 -71 -101 -5 0 -9 -11 -9 -25 0 -15 -6 -25 -15
-25 -17 0 -35 -30 -35 -60 0 -12 -6 -34 -14 -48 -21 -40 -41 -142 -30 -150 15
-11 44 -93 37 -105 -3 -6 -1 -7 5 -3 7 4 12 17 12 29 0 29 34 121 57 155 24
38 29 9 9 -59 -9 -28 -13 -56 -10 -61 4 -6 6 -30 6 -54 -2 -56 23 -107 81
-169 39 -41 46 -55 42 -76 -4 -19 1 -32 20 -51 14 -14 28 -36 30 -47 2 -12 11
-28 19 -37 20 -19 20 -23 0 -45 -15 -16 -14 -17 3 -13 14 4 31 -7 56 -36 l37
-40 -5 32 c-3 18 -11 38 -16 44 -16 19 -23 167 -8 162 13 -4 14 -6 47 -78 12
-25 36 -61 54 -82 18 -20 41 -47 51 -60 12 -16 20 -19 23 -11 7 15 54 18 54 3
0 -5 7 -10 16 -10 9 0 30 -11 46 -25 20 -17 34 -22 45 -17 9 6 30 4 52 -4 20
-7 46 -13 59 -14 13 0 22 -6 22 -15 0 -14 3 -13 25 1 21 14 28 14 43 3 16 -13
16 -12 3 4 -13 16 -13 20 0 28 8 5 25 9 39 10 14 1 43 3 65 5 22 2 52 4 67 4
25 1 64 30 39 30 -18 0 -13 28 7 33 23 7 140 2 148 -6 4 -3 13 1 21 9 8 8 18
12 23 9 5 -3 11 -1 15 5 3 5 16 10 28 10 15 0 18 3 9 9 -14 8 -3 22 28 34 8 4
-3 3 -25 0 -111 -18 -109 3 6 47 50 19 112 51 138 70 26 19 58 43 71 53 14 10
18 15 11 11 -10 -5 -8 3 6 22 57 80 114 226 118 299 0 17 4 36 8 42 4 6 3 23
-3 38 -5 14 -10 39 -10 54 0 15 -4 31 -9 37 -9 9 -18 49 -20 87 -1 11 -6 15
-12 11 -7 -4 -9 0 -5 12 3 11 2 25 -3 33 -14 22 -24 -24 -11 -49 34 -63 55
-237 28 -228 -7 3 -18 26 -24 52 -7 27 -17 53 -23 59 -6 6 -11 22 -11 34 0 13
-7 37 -15 54 -9 16 -18 60 -22 97 -4 53 -11 72 -29 90 -13 13 -24 31 -24 41 0
10 -7 24 -15 31 -22 18 -19 51 5 57 16 4 18 11 13 32 -3 14 -14 37 -25 50 -10
13 -18 30 -18 37 0 8 -8 14 -17 14 -26 0 -90 80 -73 90 7 5 19 6 26 3 24 -9
23 14 -1 25 -14 7 -25 16 -25 21 0 10 -84 53 -148 75 -38 14 -43 14 -49 0z
m-430 -122 c21 8 33 6 51 -6 16 -10 36 -13 59 -9 20 3 37 1 41 -6 9 -14 83
-14 92 0 4 7 19 8 38 5 36 -7 126 -91 126 -118 0 -22 -13 -23 -30 -3 -7 8 -21
15 -32 15 -18 0 -18 -2 -4 -22 21 -29 20 -58 0 -58 -9 0 -31 9 -49 20 -29 18
-33 18 -39 4 -4 -10 -13 -13 -24 -10 -24 8 -55 -25 -46 -48 7 -19 25 -21 42
-4 9 9 16 8 30 -5 15 -14 23 -15 50 -5 29 11 34 10 62 -17 18 -17 30 -39 30
-54 0 -13 10 -35 21 -47 12 -13 25 -44 30 -69 5 -25 22 -65 39 -88 32 -45 50
-107 32 -107 -6 0 -15 8 -21 18 -8 13 -12 14 -22 5 -10 -10 -10 -19 3 -46 13
-28 14 -37 2 -58 -7 -13 -11 -31 -9 -39 6 -20 -4 -34 -45 -64 -36 -26 -248
-136 -262 -136 -20 0 -3 20 46 54 61 42 117 106 93 106 -8 0 -20 -7 -27 -15
-7 -8 -18 -15 -25 -15 -6 0 -20 -9 -30 -20 -10 -11 -23 -20 -30 -20 -7 0 -20
-9 -31 -21 -13 -15 -26 -19 -46 -15 -15 3 -30 1 -33 -4 -9 -14 -51 -12 -63 3
-6 7 -10 26 -10 42 1 45 -11 75 -32 75 -10 0 -27 8 -39 18 l-22 17 20 40 c22
45 17 58 -29 73 -32 12 -40 7 -40 -20 0 -10 -4 -18 -10 -18 -15 0 -12 -26 5
-40 8 -7 14 -20 13 -29 -2 -9 12 -23 34 -36 21 -11 38 -24 38 -28 0 -16 -85 5
-123 30 -32 20 -38 29 -33 49 5 20 0 28 -33 48 -44 28 -63 74 -37 88 9 5 16
17 16 26 0 15 39 53 77 75 6 4 19 0 28 -10 16 -16 18 -15 34 6 10 13 23 20 32
16 10 -4 22 3 33 19 19 30 51 33 79 9 19 -17 20 -17 34 5 12 16 25 22 54 22
21 0 41 -4 44 -10 3 -5 15 -10 25 -10 10 0 21 -9 25 -19 3 -11 12 -22 20 -25
8 -3 15 -12 15 -21 0 -13 -3 -14 -22 -3 -64 36 -124 36 -160 0 -18 -18 -1 -27
27 -14 48 22 117 -10 86 -41 -18 -18 -13 -33 14 -45 34 -16 41 -39 20 -62 -22
-24 -55 -25 -95 -5 -34 18 -39 44 -10 52 25 7 25 15 2 36 -15 14 -23 15 -50 5
-39 -15 -40 -31 -7 -63 20 -18 24 -29 19 -48 -9 -36 2 -49 28 -34 16 9 22 9
25 0 6 -18 28 -16 43 2 18 22 39 18 52 -10 13 -28 39 -33 58 -10 7 8 18 15 25
15 7 0 18 7 25 15 10 12 9 20 -4 40 -24 36 -20 55 9 55 35 0 55 42 33 67 -9
10 -21 35 -28 57 -7 22 -20 41 -31 43 -12 4 -19 14 -19 29 0 16 -8 28 -22 33
-33 13 -88 67 -88 85 0 19 -10 20 -44 5 -19 -9 -29 -9 -40 0 -12 10 -21 9 -46
-4 -39 -20 -52 -13 -39 24 13 38 47 69 83 75 39 7 56 24 36 37 -19 12 -109 1
-135 -17 -50 -36 -75 0 -29 43 46 42 5 72 -47 34 -15 -12 -38 -21 -49 -21 -11
0 -23 -7 -26 -15 -15 -38 -74 -41 -74 -3 0 15 -11 8 -53 -34 -30 -29 -59 -63
-66 -75 -14 -28 -31 -30 -31 -5 0 47 135 205 186 218 14 4 31 1 40 -7 14 -11
20 -9 43 18 30 35 48 43 76 33 11 -4 32 -3 48 2z m500 -112 c65 -49 66 -51 68
-98 3 -104 0 -125 -15 -140 -15 -15 -16 -14 -16 13 -1 37 -20 64 -45 62 -14
-2 -22 9 -31 41 -11 35 -11 42 1 42 24 0 6 61 -28 98 -48 50 -11 40 66 -18z
m-883 -85 c0 -8 -15 -32 -34 -52 -18 -21 -41 -53 -50 -70 -9 -18 -21 -33 -26
-33 -6 0 -10 -9 -10 -20 0 -10 -6 -23 -14 -27 -7 -4 -16 -31 -19 -60 -3 -28
-10 -60 -15 -70 -36 -73 -62 -118 -71 -121 -15 -5 -14 18 4 68 8 23 13 45 10
49 -7 13 32 210 45 226 7 8 21 15 32 15 10 0 26 12 35 28 14 24 85 79 106 81
4 1 7 -6 7 -14z m1014 -166 c2 -51 12 -109 26 -148 l21 -64 -22 -95 -23 -94
23 -17 c20 -15 22 -22 15 -72 -8 -62 -18 -79 -48 -79 -27 0 -46 -18 -46 -44 0
-27 -28 -56 -54 -56 -12 0 -31 -7 -42 -15 -24 -16 -173 -60 -158 -46 14 14
108 61 120 61 15 0 78 50 107 85 15 18 28 51 32 78 8 55 -6 63 -30 17 -9 -16
-24 -30 -34 -30 -9 0 -28 -11 -40 -24 -13 -14 -38 -26 -59 -29 -20 -3 -48 -8
-62 -12 -14 -4 0 8 32 27 70 41 118 82 118 101 0 8 8 25 19 38 10 13 21 46 25
72 7 46 8 48 26 32 24 -22 29 -11 23 55 -6 71 -6 81 0 169 8 101 19 183 24
178 2 -3 5 -42 7 -88z m-889 1 c-6 -36 -5 -40 14 -40 11 0 26 9 34 20 10 14
28 20 73 24 131 9 198 -27 72 -39 -73 -7 -146 -38 -200 -83 -19 -15 -28 -6
-28 30 0 33 -15 37 -30 8 -6 -11 -17 -20 -24 -20 -19 0 -50 -37 -37 -45 20
-12 11 -34 -24 -66 -39 -36 -43 -47 -17 -45 15 1 17 -9 17 -78 0 -54 -6 -90
-18 -117 -20 -43 -16 -59 14 -59 12 0 23 -10 29 -27 17 -49 27 -58 60 -59 36
-1 50 -16 50 -55 0 -14 12 -40 28 -57 15 -17 41 -48 57 -68 17 -21 50 -50 74
-66 33 -20 40 -29 28 -33 -8 -4 -24 -2 -36 4 -11 6 -28 11 -38 11 -11 0 -25 6
-31 12 -7 7 -34 13 -60 14 -58 1 -105 22 -110 49 -2 11 -10 27 -17 35 -8 8
-15 35 -17 60 -2 32 -8 46 -20 48 -11 2 -18 -5 -20 -19 -2 -12 -8 -24 -15 -26
-18 -6 -63 68 -63 103 0 17 -7 37 -15 44 -23 19 -20 97 5 110 11 6 20 20 20
31 0 11 10 33 22 49 29 40 13 59 -26 29 -28 -22 -56 -20 -56 6 0 35 43 104
104 165 23 23 28 34 23 59 -5 25 -2 33 22 51 16 11 33 20 38 20 4 0 28 14 53
30 63 41 73 39 65 -10z m1027 -32 c7 -13 14 -30 15 -38 1 -8 7 -44 12 -80 14
-85 14 -97 0 -83 -11 11 -48 136 -56 191 -6 37 10 43 29 10z m-196 -48 c3 -52
-7 -150 -16 -150 -9 0 -20 164 -13 191 8 31 25 7 29 -41z m164 -155 c20 -107
20 -134 2 -167 -22 -40 -48 -51 -36 -17 4 13 7 80 7 149 -2 130 6 140 27 35z
m93 -68 c21 -46 36 -114 40 -186 1 -13 8 -26 15 -29 18 -6 14 -40 -8 -62 -11
-11 -20 -27 -20 -36 0 -25 -53 -94 -78 -100 -12 -4 -30 -20 -38 -38 -18 -34
-52 -65 -72 -66 -7 0 -25 -9 -40 -20 -15 -11 -56 -27 -92 -36 -38 -9 -70 -24
-78 -35 -7 -11 -19 -19 -27 -19 -8 0 -18 -6 -22 -14 -5 -10 -40 -18 -98 -26
-50 -6 -105 -13 -122 -16 -42 -6 -47 21 -5 29 106 21 128 30 157 61 23 26 44
36 88 46 61 12 111 36 160 77 16 13 39 23 51 23 25 0 59 31 62 58 2 9 11 22
21 27 9 6 37 29 60 53 38 38 51 67 43 97 -2 6 -4 37 -6 70 -3 73 -9 111 -23
148 -26 68 0 64 32 -6z m-1023 -207 c7 -14 24 -38 36 -53 13 -16 24 -35 24
-43 0 -17 57 -47 76 -40 17 6 60 -19 86 -49 26 -32 136 -20 187 19 13 11 54
23 157 50 28 7 65 22 82 34 35 26 43 27 36 7 -9 -21 -91 -65 -154 -81 -30 -8
-67 -23 -82 -34 -15 -11 -32 -20 -38 -20 -5 0 -10 -4 -10 -8 0 -38 -100 -74
-143 -50 -12 6 -42 12 -67 12 -39 1 -45 4 -48 24 -3 18 -10 22 -39 22 -26 0
-36 5 -40 20 -3 10 -14 22 -24 25 -11 4 -19 16 -19 28 0 12 -7 36 -16 52 -25
47 -44 109 -50 161 l-5 49 19 -50 c10 -28 25 -62 32 -75z m1110 80 c12 -23 6
-40 -16 -40 -17 0 -28 24 -20 45 8 21 23 19 36 -5z m-978 -92 c32 -35 53 -65
46 -67 -17 -6 -78 30 -78 46 0 8 -9 26 -20 40 -20 26 -26 43 -13 43 3 0 33
-28 65 -62z m829 -54 c-21 -41 -59 -71 -125 -101 -56 -25 -48 -7 17 41 38 28
72 62 83 84 31 62 38 69 42 42 2 -13 -6 -43 -17 -66z m-636 -43 c46 -7 48 -9
25 -17 -47 -19 -130 -4 -130 23 0 12 6 14 28 8 15 -4 50 -10 77 -14z m305
-132 c0 -13 -94 -55 -144 -64 -20 -4 -36 -3 -36 2 0 18 49 56 64 50 9 -4 30 0
48 8 40 17 68 19 68 4z m-192 -103 c-8 -24 -112 -65 -166 -66 -52 0 -122 21
-122 37 0 4 28 8 63 7 34 0 68 4 76 10 36 28 156 38 149 12z m-226 -109 c54
-1 98 -5 98 -8 0 -22 -157 -35 -205 -18 -45 17 -95 43 -95 50 0 3 24 0 53 -8
28 -8 96 -15 149 -16z"/>
<path d="M763 1966 c-39 -33 -72 -67 -72 -74 -2 -21 38 5 51 34 6 13 15 24 20
24 9 0 81 71 76 75 -2 1 -35 -25 -75 -59z"/>
<path d="M1715 580 c-3 -5 -1 -10 4 -10 6 0 11 5 11 10 0 6 -2 10 -4 10 -3 0
-8 -4 -11 -10z"/>
<path d="M860 511 c14 -4 24 -13 23 -18 -1 -6 5 -14 14 -17 14 -6 14 -4 1 16
-9 13 -26 24 -39 25 -24 2 -24 2 1 -6z"/>
<path d="M1027 410 c3 -11 7 -20 9 -20 2 0 4 9 4 20 0 11 -4 20 -9 20 -5 0 -7
-9 -4 -20z"/>
<path d="M1150 400 c0 -11 2 -20 4 -20 2 0 6 9 9 20 3 11 1 20 -4 20 -5 0 -9
-9 -9 -20z"/>
<path d="M1188 413 c7 -3 16 -2 19 1 4 3 -2 6 -13 5 -11 0 -14 -3 -6 -6z"/>
<path d="M1658 143 c7 -3 16 -2 19 1 4 3 -2 6 -13 5 -11 0 -14 -3 -6 -6z"/>
</g>
</svg>
